<?xml version="1.0" encoding="utf-8"?>
<!-- Generator: Adobe Illustrator 16.0.0, SVG Export Plug-In . SVG Version: 6.00 Build 0)  -->
<!DOCTYPE svg PUBLIC "-//W3C//DTD SVG 1.1//EN" "http://www.w3.org/Graphics/SVG/1.1/DTD/svg11.dtd">
<svg version="1.1" id="Layer_1" xmlns="http://www.w3.org/2000/svg" xmlns:xlink="http://www.w3.org/1999/xlink" x="0px" y="0px"
	 width="315px" height="160px" viewBox="12.5 10 315 160" enable-background="new 12.5 10 315 160" xml:space="preserve">
<g>
	<path fill="#BD2427" d="M178.498,110.292c-69.454,0-97.992,18.379-97.992,18.379l97.992,36.284l98.01-36.28
		C276.508,128.675,247.955,110.292,178.498,110.292z"/>
</g>
<g>
	<g>
		<g>
			<polygon fill="#FFFFFF" points="226.453,103.024 178.502,133.624 130.556,103.024 128.506,44.92 178.502,17.405 228.508,44.92 
							"/>
			<g>
				<path fill="#231F20" d="M226.563,103.2c-3.846,2.785-7.76,5.461-11.645,8.184c-3.877,2.736-7.848,5.33-11.764,8.002
					c-3.939,2.639-7.838,5.34-11.811,7.928l-11.891,7.799l-0.936,0.611l-0.969-0.611l-12.025-7.586
					c-3.996-2.549-7.972-5.129-11.92-7.754l-11.791-7.953l-11.776-7.979l-0.442-0.301l-0.002-0.479
					c-0.061-9.695-0.279-19.384-0.72-29.065c-0.22-4.84-0.402-9.682-0.652-14.52l-0.838-14.514l-0.038-0.664l0.62-0.361l12.322-7.2
					l12.376-7.104c8.248-4.742,16.565-9.354,24.843-14.038l0.977-0.55l1.02,0.55l12.561,6.776l12.506,6.872l12.445,6.978
					c4.158,2.309,8.264,4.713,12.398,7.068l1.021,0.584l-0.057,1.117l-0.768,14.517c-0.229,4.84-0.578,9.675-0.875,14.513
					c-0.322,4.836-0.584,9.678-0.959,14.511c-0.365,4.834-0.691,9.672-1.115,14.506l-0.01,0.104L226.563,103.2z M226.248,102.909
					c-0.08-4.813-0.064-9.627-0.088-14.439c-0.033-4.848,0.049-9.695,0.068-14.542c0.043-4.847,0.039-9.693,0.15-14.539
					l0.262-14.535l0.963,1.701c-4.199-2.234-8.428-4.414-12.604-6.689l-12.557-6.78l-12.496-6.886l-12.443-6.982h1.992
					c-8.387,4.488-16.733,9.048-25.151,13.479l-12.624,6.654l-12.676,6.555l0.582-1.022l0.188,14.537
					c0.092,4.845,0.252,9.688,0.373,14.533c0.244,9.688,0.709,19.364,1.332,29.04l-0.445-0.779l12.197,7.318l12.181,7.348
					c4.042,2.475,8.058,4.994,12.051,7.543l11.945,7.713h-1.898l12.086-7.5c4.021-2.512,8.113-4.908,12.166-7.371
					c4.072-2.43,8.096-4.936,12.209-7.297C218.088,107.604,222.133,105.204,226.248,102.909z"/>
			</g>
		</g>
	</g>
	<polygon fill="#231F20" points="131.066,46.668 179.002,70.792 225.951,46.668 181.396,74.242 178.252,127.509 176.945,74.242 	"/>
</g>
<g>
	<g>
		<path fill="#231F20" d="M19.68,63.652c1.349-1.355,2.973-2.033,4.876-2.033c1.9,0,3.526,0.678,4.874,2.033
			c1.349,1.354,2.022,2.983,2.022,4.884H26.87c0-0.645-0.224-1.189-0.674-1.641c-0.45-0.449-0.998-0.672-1.643-0.672
			c-0.644,0-1.188,0.225-1.628,0.674c-0.439,0.449-0.664,0.996-0.664,1.641v18.396c0,0.644,0.223,1.187,0.664,1.626
			c0.442,0.441,0.984,0.662,1.628,0.662c0.643,0,1.19-0.221,1.639-0.664c0.45-0.44,0.674-0.983,0.674-1.626v-6.896h-2.313v-4.604
			h6.895v11.5c0,1.9-0.674,3.525-2.022,4.873c-1.348,1.35-2.972,2.021-4.874,2.021c-1.901,0-3.527-0.674-4.876-2.021
			c-1.348-1.348-2.021-2.973-2.021-4.873V68.537C17.658,66.636,18.332,65.009,19.68,63.652z"/>
		<path fill="#231F20" d="M39.428,61.621h4.561l6.896,32.208h-4.56l-1.37-6.896l-6.492-0.043l-1.372,6.941h-4.559L39.428,61.621z
			 M41.697,70.828l-2.313,11.545h4.647l-2.291-11.545H41.697z"/>
		<path fill="#231F20" d="M60.718,86.933l-3.46-10.354v17.25h-4.604V61.622h4.604l5.75,17.25l5.75-17.25h4.605v32.209h-4.605v-17.25
			l-3.436,10.354h-4.604V86.933z"/>
		<path fill="#231F20" d="M76.34,93.829V61.621h13.814v4.603h-9.211v9.209h6.896v4.604h-6.896v9.187h9.211v4.605H76.34z"/>
		<path fill="#231F20" d="M92.294,61.664l9.208,0.045c1.258,0,2.332,0.445,3.222,1.336c0.89,0.893,1.337,1.966,1.337,3.224v9.207
			c0,1.752-0.757,3.07-2.269,3.955l2.269,14.396h-4.559L99.21,80.037h-2.358v13.791h-4.56V61.664H92.294z M96.853,66.224v9.299
			h2.896c0.494,0,0.91-0.176,1.246-0.528c0.338-0.353,0.506-0.761,0.506-1.224v-5.75c0-0.494-0.168-0.916-0.506-1.27
			c-0.336-0.352-0.752-0.527-1.246-0.527H96.853z"/>
		<path fill="#231F20" d="M112.576,84.621v2.313c0,0.645,0.224,1.188,0.674,1.628c0.449,0.441,0.996,0.662,1.64,0.662
			c0.642,0,1.187-0.221,1.626-0.664c0.442-0.441,0.662-0.984,0.662-1.628v-4.604c0-0.645-0.22-1.186-0.662-1.627
			c-0.441-0.442-0.984-0.662-1.626-0.662c-2.065-0.016-3.79-0.787-5.168-2.314c-1.168-1.317-1.75-2.852-1.75-4.604v-4.582
			c0-1.902,0.677-3.53,2.032-4.884c1.355-1.355,2.984-2.033,4.886-2.033c1.9,0,3.526,0.678,4.874,2.033
			c1.348,1.354,2.021,2.984,2.021,4.884v2.291h-0.426h-4.18v-2.291c0-0.645-0.22-1.189-0.662-1.641
			c-0.441-0.449-0.984-0.674-1.628-0.674s-1.192,0.225-1.64,0.674s-0.674,0.996-0.674,1.641v4.582c0,0.645,0.224,1.189,0.674,1.64
			c0.449,0.45,0.996,0.675,1.64,0.675c2.05,0,3.767,0.765,5.142,2.291c1.168,1.318,1.752,2.853,1.752,4.604v4.604
			c0,1.9-0.674,3.525-2.021,4.873c-1.347,1.35-2.972,2.021-4.874,2.021c-1.901,0-3.532-0.674-4.886-2.021
			c-1.354-1.346-2.032-2.973-2.032-4.873v-2.313L112.576,84.621L112.576,84.621z"/>
	</g>
</g>
<g>
	<g>
		<path fill="#231F20" d="M236.15,61.664h9.207c1.26,0,2.332,0.445,3.225,1.336c0.889,0.893,1.336,1.98,1.336,3.269v9.207
			c0,1.258-0.447,2.332-1.336,3.226c-0.893,0.89-1.965,1.336-3.225,1.336h-4.646v13.792h-4.561V61.664z M240.713,66.224v9.254h2.896
			c0.494,0,0.91-0.168,1.246-0.504c0.338-0.338,0.506-0.752,0.506-1.248v-5.75c0-0.494-0.168-0.91-0.506-1.248
			c-0.336-0.336-0.752-0.504-1.246-0.504H240.713z"/>
		<path fill="#231F20" d="M252.979,93.829V61.621h4.604v27.603h9.211v4.605H252.979z"/>
		<path fill="#231F20" d="M275.48,61.621h4.561l6.896,32.208h-4.561l-1.369-6.896l-6.492-0.043l-1.373,6.941h-4.557L275.48,61.621z
			 M277.752,70.828l-2.314,11.545h4.648l-2.291-11.545H277.752z"/>
		<path fill="#231F20" d="M290.23,61.621h4.605l4.604,16.103V61.621h4.607v32.208h-4.607l-4.604-16.105v16.105h-4.605V61.621z"/>
		<path fill="#231F20" d="M308.529,93.829V61.621h13.814v4.603h-9.209v9.209h6.895v4.604h-6.895v9.187h9.209v4.605H308.529z"/>
	</g>
</g>
</svg>
