<?xml version="1.0" encoding="utf-8"?>
<!-- Generator: Adobe Illustrator 16.0.0, SVG Export Plug-In . SVG Version: 6.00 Build 0)  -->
<svg version="1.2" baseProfile="tiny" xmlns="http://www.w3.org/2000/svg" xmlns:xlink="http://www.w3.org/1999/xlink" x="0px"
	 y="0px" width="30px" height="30px" viewBox="0 0 30 30" xml:space="preserve">
<g id="Layer_1">
	<g>
		<path fill="#FFFFFF" d="M15,26C8.935,26,4,21.065,4,15S8.935,4,15,4s11,4.935,11,11S21.065,26,15,26z"/>
		<path d="M15,5c5.514,0,10,4.486,10,10c0,5.514-4.486,10-10,10C9.486,25,5,20.514,5,15C5,9.486,9.486,5,15,5 M15,3
			C8.372,3,3,8.372,3,15c0,6.627,5.372,12,12,12c6.627,0,12-5.373,12-12C27,8.372,21.627,3,15,3L15,3z"/>
	</g>
</g>
<g id="Layer_3">
	<g>
		<path d="M15,26.5C8.659,26.5,3.5,21.341,3.5,15c0-4.843,3.004-9.101,7.448-10.766C9.954,6.058,9.434,8.096,9.434,10.2
			c0,6.893,5.606,12.501,12.498,12.501c0.573,0,1.146-0.039,1.712-0.118C21.47,25.057,18.325,26.5,15,26.5z"/>
		<path d="M9.914,5.241c-0.646,1.561-0.98,3.239-0.98,4.959c0,7.169,5.831,13.001,12.998,13.001c0.134,0,0.269-0.002,0.402-0.006
			C20.336,24.981,17.731,26,15,26C8.935,26,4,21.065,4,15C4,10.822,6.337,7.099,9.914,5.241 M12.074,3.36C6.861,4.667,3,9.382,3,15
			c0,6.627,5.372,12,12,12c4.084,0,7.693-2.045,9.861-5.162c-0.938,0.236-1.919,0.363-2.93,0.363
			c-6.626,0-11.998-5.373-11.998-12.001C9.934,7.657,10.727,5.3,12.074,3.36L12.074,3.36z"/>
</g>
</svg>
